<svg width="29" height="31" viewBox="0 0 29 31" fill="none" xmlns="http://www.w3.org/2000/svg">
<g clip-path="url(#clip0_207_1592)">
<path d="M28.9847 15.7901C28.9847 14.52 28.886 13.5932 28.6725 12.6321H14.7888V18.3645H22.9382C22.774 19.7891 21.8867 21.9344 19.9151 23.3761L19.8874 23.568L24.2772 27.1203L24.5813 27.152C27.3744 24.4574 28.9847 20.4927 28.9847 15.7901Z" fill="#4285F4"/>
<path d="M14.7888 30.8936C18.7813 30.8936 22.1331 29.5204 24.5813 27.152L19.915 23.376C18.6664 24.2857 16.9904 24.9207 14.7888 24.9207C10.8784 24.9207 7.55948 22.2262 6.37638 18.5018L6.20297 18.5172L1.63843 22.2073L1.57874 22.3806C4.01041 27.4265 9.00525 30.8936 14.7888 30.8936Z" fill="#34A853"/>
<path d="M6.37663 18.5017C6.06446 17.5406 5.8838 16.5108 5.8838 15.4467C5.8838 14.3825 6.06446 13.3528 6.36021 12.3917L6.35194 12.187L1.7302 8.43762L1.57899 8.51276C0.576779 10.6067 0.00170898 12.9581 0.00170898 15.4467C0.00170898 17.9353 0.576779 20.2866 1.57899 22.3805L6.37663 18.5017Z" fill="#FBBC05"/>
<path d="M14.7888 5.97271C17.5655 5.97271 19.4385 7.2256 20.5065 8.27262L24.6798 4.01616C22.1168 1.52752 18.7813 0 14.7888 0C9.00525 0 4.01041 3.46691 1.57874 8.51281L6.35996 12.3917C7.55948 8.66734 10.8784 5.97271 14.7888 5.97271Z" fill="#EB4335"/>
</g>
<defs>
<clipPath id="clip0_207_1592">
<rect width="29" height="31" fill="white"/>
</clipPath>
</defs>
</svg>
